<svg width="292" height="97" viewBox="0 0 292 97" fill="none" xmlns="http://www.w3.org/2000/svg">
<path d="M52.6975 90.8432V94.5098H50.7034V90.8432L47.7857 84.3229H49.9755L51.7388 88.7092L53.4887 84.3229H55.6637L52.6975 90.8432Z" fill="white"/>
<path d="M57.5036 90.5985C57.5036 91.2475 57.7195 91.7894 58.1504 92.2248C58.5822 92.6625 59.1084 92.8798 59.7284 92.8798C60.2926 92.8798 60.7891 92.6602 61.2178 92.2218C61.6481 91.7842 61.8624 91.2706 61.8624 90.6833C61.8624 90.0573 61.6466 89.5199 61.2156 89.0696C60.7831 88.62 60.2785 88.3952 59.7001 88.3952C59.0935 88.3952 58.5762 88.6081 58.1475 89.0354C57.718 89.4626 57.5036 89.9836 57.5036 90.5985ZM62.0656 94.5092V93.5646C61.8498 93.9479 61.5491 94.2293 61.159 94.4117C60.7697 94.5933 60.2718 94.6841 59.6652 94.6841C58.5278 94.6841 57.5773 94.297 56.8136 93.5192C56.0522 92.7436 55.6711 91.7782 55.6711 90.6275C55.6711 90.0864 55.7656 89.572 55.9569 89.0875C56.1482 88.6029 56.4214 88.1757 56.7757 87.808C57.1583 87.4016 57.5825 87.1016 58.0492 86.9081C58.5159 86.7145 59.0407 86.6178 59.6235 86.6178C60.1832 86.6178 60.6648 86.7116 61.0682 86.8976C61.4716 87.0852 61.7969 87.3658 62.0448 87.7447V86.8143H63.7925V94.5092H62.0656Z" fill="white"/>
<path d="M67.983 86.8134V87.688C68.2443 87.3381 68.5435 87.0791 68.8822 86.9116C69.2201 86.7442 69.6057 86.6593 70.0403 86.6593C70.6604 86.6593 71.1903 86.7687 71.6317 86.9883C72.0724 87.2071 72.4512 87.5503 72.7683 88.017C73.0713 87.5592 73.4129 87.2191 73.7895 86.9958C74.1677 86.7717 74.5852 86.6593 75.0415 86.6593C75.9838 86.6593 76.7073 86.9556 77.2112 87.548C77.7151 88.1405 77.9667 88.9891 77.9667 90.0944V94.5098H76.2034V91.103C76.2034 90.0572 76.088 89.3478 75.8573 88.9712C75.6265 88.5961 75.2268 88.4092 74.6574 88.4092C74.0649 88.4092 73.6414 88.6191 73.3876 89.0419C73.133 89.4647 73.0058 90.1882 73.0058 91.2139V94.5098H71.229V91.103C71.229 90.0631 71.1114 89.353 70.8762 88.9749C70.6403 88.5983 70.2287 88.4092 69.6414 88.4092C69.0444 88.4092 68.6149 88.6191 68.3537 89.0419C68.0932 89.4647 67.9614 90.1882 67.9614 91.2139V94.5098H66.2331V86.8134H67.983Z" fill="white"/>
<path d="M80.3932 86.8134H82.1432V94.5098H80.3932V86.8134ZM82.1424 86.0304H80.3925V84.3236H82.1424V86.0304Z" fill="white"/>
<path d="M86.353 86.8134V87.688C86.6143 87.3381 86.9135 87.0791 87.2522 86.9116C87.5901 86.7442 87.9757 86.6593 88.4096 86.6593C88.9649 86.6593 89.4487 86.7643 89.8611 86.9749C90.2742 87.1841 90.6181 87.4989 90.8935 87.9187C91.0706 88.1986 91.1979 88.5172 91.2746 88.8744C91.352 89.231 91.3899 89.752 91.3899 90.4375V94.5098H89.5991V91.103C89.5991 90.0713 89.48 89.365 89.2418 88.9824C89.0043 88.5998 88.5935 88.4092 88.0114 88.4092C87.4145 88.4092 86.985 88.6191 86.7237 89.0419C86.4625 89.4647 86.3315 90.1882 86.3315 91.2139V94.5098H84.6031V86.8134H86.353Z" fill="white"/>
<path d="M95.1749 90.5985C95.1749 91.2475 95.3908 91.7894 95.8217 92.2248C96.2535 92.6625 96.7797 92.8798 97.3997 92.8798C97.9639 92.8798 98.4611 92.6602 98.8891 92.2218C99.3193 91.7842 99.5337 91.2706 99.5337 90.6833C99.5337 90.0573 99.3179 89.5199 98.8869 89.0696C98.4544 88.62 97.9498 88.3952 97.3714 88.3952C96.7648 88.3952 96.2475 88.6081 95.8188 89.0354C95.3893 89.4626 95.1749 89.9836 95.1749 90.5985ZM99.7369 94.5092V93.5646C99.5211 93.9479 99.2204 94.2293 98.8303 94.4117C98.441 94.5933 97.9431 94.6841 97.3365 94.6841C96.1991 94.6841 95.2486 94.297 94.4849 93.5192C93.7235 92.7436 93.3424 91.7782 93.3424 90.6275C93.3424 90.0864 93.4369 89.572 93.6282 89.0875C93.8195 88.6029 94.0927 88.1757 94.447 87.808C94.8295 87.4016 95.2538 87.1016 95.7205 86.9081C96.1872 86.7145 96.712 86.6178 97.2948 86.6178C97.8545 86.6178 98.3361 86.7116 98.7395 86.8976C99.1429 87.0852 99.4682 87.3658 99.7153 87.7447V86.8143H101.464V94.5092H99.7369Z" fill="white"/>
<path d="M118.548 87.3458H116.114C115.824 86.9535 115.48 86.6595 115.081 86.4645C114.683 86.268 114.229 86.1697 113.721 86.1697C113.31 86.1697 112.921 86.2471 112.552 86.4012C112.184 86.5545 111.858 86.7793 111.573 87.0719C111.27 87.38 111.035 87.7365 110.87 88.1385C110.704 88.5434 110.622 88.9572 110.622 89.3815C110.622 90.3142 110.921 91.0964 111.52 91.7284C112.12 92.3603 112.854 92.6767 113.721 92.6767C114.22 92.6767 114.669 92.5836 115.068 92.3968C115.467 92.21 115.789 91.9398 116.037 91.5847H118.478C118.002 92.6253 117.369 93.4076 116.575 93.9294C115.782 94.4511 114.836 94.7124 113.734 94.7124C112.97 94.7124 112.265 94.5665 111.618 94.2718C110.973 93.9777 110.393 93.5416 109.88 92.9632C109.446 92.4824 109.117 91.9361 108.894 91.3227C108.67 90.7101 108.558 90.0529 108.558 89.3532C108.558 88.6439 108.693 87.9717 108.963 87.3346C109.234 86.6989 109.63 86.1184 110.152 85.5958C110.647 85.1113 111.196 84.7443 111.8 84.4942C112.404 84.2449 113.054 84.1198 113.749 84.1198C114.863 84.1198 115.816 84.3856 116.606 84.9178C117.397 85.4492 118.044 86.2583 118.548 87.3458Z" fill="white"/>
<path d="M125.564 94.5097V93.6768C125.303 94.0266 125.003 94.2871 124.665 94.4576C124.327 94.6273 123.941 94.7129 123.507 94.7129C122.542 94.7129 121.8 94.4159 121.282 93.8242C120.765 93.2309 120.506 92.3802 120.506 91.2704V86.8133H122.318V90.2692C122.318 91.3098 122.437 92.0206 122.675 92.4032C122.912 92.7873 123.323 92.9771 123.906 92.9771C124.503 92.9771 124.931 92.7627 125.19 92.334C125.449 91.9053 125.578 91.1773 125.578 90.1509V86.8133H127.341V94.5097H125.564Z" fill="white"/>
<path d="M131.532 86.8134V87.688C131.793 87.3381 132.092 87.0791 132.431 86.9116C132.769 86.7442 133.155 86.6593 133.589 86.6593C134.209 86.6593 134.739 86.7687 135.18 86.9883C135.621 87.2071 136 87.5503 136.317 88.017C136.62 87.5592 136.962 87.2191 137.338 86.9958C137.716 86.7717 138.134 86.6593 138.59 86.6593C139.532 86.6593 140.256 86.9556 140.76 87.548C141.264 88.1405 141.515 88.9891 141.515 90.0944V94.5098H139.752V91.103C139.752 90.0572 139.637 89.3478 139.406 88.9712C139.175 88.5961 138.775 88.4092 138.206 88.4092C137.614 88.4092 137.19 88.6191 136.936 89.0419C136.682 89.4647 136.554 90.1882 136.554 91.2139V94.5098H134.778V91.103C134.778 90.0631 134.66 89.353 134.425 88.9749C134.189 88.5983 133.777 88.4092 133.19 88.4092C132.593 88.4092 132.164 88.6191 131.902 89.0419C131.642 89.4647 131.51 90.1882 131.51 91.2139V94.5098H129.782V86.8134H131.532Z" fill="white"/>
<path d="M145.643 90.627C145.643 91.285 145.855 91.8343 146.279 92.2742C146.704 92.7156 147.229 92.936 147.853 92.936C148.469 92.936 148.995 92.7112 149.431 92.2638C149.868 91.8165 150.086 91.2798 150.086 90.6546C150.086 90.007 149.866 89.4681 149.428 89.0386C148.989 88.6099 148.437 88.3948 147.769 88.3948C147.182 88.3948 146.68 88.6107 146.265 89.0424C145.85 89.4741 145.643 90.0018 145.643 90.627ZM145.573 93.8939V97H143.81V86.8138H145.573V87.4577C145.932 87.1734 146.307 86.9612 146.699 86.825C147.09 86.6873 147.512 86.6173 147.966 86.6173C148.45 86.6173 148.908 86.6933 149.337 86.8451C149.766 86.9962 150.15 87.2225 150.491 87.521C150.954 87.9214 151.309 88.3948 151.559 88.9404C151.807 89.486 151.932 90.0673 151.932 90.6836C151.932 91.256 151.819 91.8046 151.593 92.3271C151.367 92.8489 151.046 93.2992 150.631 93.6773C150.277 94.0137 149.871 94.2698 149.417 94.4469C148.962 94.6241 148.483 94.7127 147.98 94.7127C147.49 94.7127 147.05 94.6464 146.66 94.5132C146.271 94.3807 145.908 94.1738 145.573 93.8939Z" fill="white"/>
<path d="M154.03 84.3236H155.78V94.5098H154.03V84.3236Z" fill="white"/>
<path d="M158.24 86.8134H159.99V94.5098H158.24V86.8134ZM159.989 86.0304H158.24V84.3236H159.989V86.0304Z" fill="white"/>
<path d="M168.348 90.6965C168.348 90.0385 168.14 89.4914 167.722 89.053C167.306 88.6138 166.784 88.395 166.159 88.395C165.543 88.395 165.017 88.6191 164.582 89.0657C164.145 89.5145 163.927 90.0489 163.927 90.6689C163.927 91.3165 164.147 91.8569 164.585 92.2886C165.023 92.7196 165.576 92.9354 166.243 92.9354C166.831 92.9354 167.329 92.7188 167.737 92.2849C168.145 91.8502 168.348 91.3225 168.348 90.6965ZM168.426 87.4296V84.3235H170.188V94.5097H168.426V93.8807C168.072 94.1599 167.698 94.369 167.306 94.5067C166.915 94.6437 166.49 94.7129 166.033 94.7129C165.548 94.7129 165.091 94.6347 164.662 94.4814C164.232 94.3273 163.848 94.104 163.507 93.81C163.041 93.4088 162.683 92.9347 162.433 92.3861C162.184 91.8383 162.06 91.2562 162.06 90.6399C162.06 90.0712 162.175 89.5257 162.406 89.0039C162.637 88.4814 162.962 88.0288 163.382 87.6462C163.731 87.3157 164.132 87.0634 164.585 86.8907C165.037 86.7188 165.52 86.6317 166.033 86.6317C166.527 86.6317 166.966 86.6957 167.349 86.8245C167.731 86.9525 168.09 87.1542 168.426 87.4296Z" fill="white"/>
<path d="M173.91 90.6126C173.91 91.3264 174.106 91.8921 174.497 92.3089C174.89 92.7265 175.421 92.9357 176.093 92.9357C176.755 92.9357 177.284 92.7228 177.678 92.2956C178.072 91.8683 178.269 91.2937 178.269 90.5709C178.269 89.9226 178.062 89.3897 177.649 88.9714C177.237 88.5545 176.718 88.3461 176.093 88.3461C175.449 88.3461 174.925 88.5568 174.519 88.9788C174.113 89.4009 173.91 89.9464 173.91 90.6126ZM172.063 90.6268C172.063 90.0856 172.162 89.5713 172.36 89.0838C172.558 88.5962 172.847 88.1645 173.225 87.7864C173.612 87.3993 174.048 87.1016 174.533 86.8939C175.018 86.687 175.522 86.5828 176.044 86.5828C176.599 86.5828 177.111 86.6751 177.58 86.859C178.049 87.0436 178.48 87.3197 178.87 87.6874C179.272 88.0759 179.582 88.5225 179.801 89.0279C180.02 89.5341 180.13 90.0529 180.13 90.5851C180.13 91.1724 180.035 91.709 179.843 92.1936C179.651 92.6789 179.365 93.1173 178.983 93.5096C178.6 93.9055 178.164 94.2055 177.674 94.408C177.184 94.6112 176.653 94.7131 176.079 94.7131C175.5 94.7131 174.973 94.6097 174.497 94.405C174.023 94.1995 173.589 93.8914 173.196 93.4813C172.823 93.0801 172.541 92.6379 172.35 92.1549C172.159 91.6725 172.063 91.1634 172.063 90.6268Z" fill="white"/>
<path d="M189.189 89.2766H189.629C190.436 89.2766 191.048 89.13 191.466 88.839C191.883 88.5479 192.092 88.1229 192.092 87.5632C192.092 87.0213 191.917 86.6231 191.567 86.3663C191.218 86.1095 190.672 85.9807 189.93 85.9807H189.189V89.2766ZM189.189 94.5093H187.195V84.3239H189.616C190.385 84.3239 190.957 84.3507 191.333 84.4035C191.709 84.4571 192.029 84.5442 192.295 84.6655C192.873 84.9364 193.314 85.3146 193.617 85.7999C193.92 86.2844 194.072 86.8538 194.072 87.5066C194.072 88.2949 193.855 88.9633 193.421 89.5111C192.988 90.0589 192.398 90.408 191.652 90.5561L194.198 94.5093H191.819L189.189 89.7798V94.5093Z" fill="white"/>
<path d="M197.282 90.6126C197.282 91.3264 197.478 91.8921 197.869 92.3089C198.262 92.7265 198.793 92.9357 199.465 92.9357C200.127 92.9357 200.656 92.7228 201.05 92.2956C201.444 91.8683 201.641 91.2937 201.641 90.5709C201.641 89.9226 201.434 89.3897 201.021 88.9714C200.609 88.5545 200.09 88.3461 199.465 88.3461C198.821 88.3461 198.297 88.5568 197.891 88.9788C197.485 89.4009 197.282 89.9464 197.282 90.6126ZM195.435 90.6268C195.435 90.0856 195.534 89.5713 195.732 89.0838C195.93 88.5962 196.219 88.1645 196.597 87.7864C196.984 87.3993 197.42 87.1016 197.905 86.8939C198.39 86.687 198.894 86.5828 199.416 86.5828C199.971 86.5828 200.483 86.6751 200.952 86.859C201.421 87.0436 201.852 87.3197 202.242 87.6874C202.644 88.0759 202.954 88.5225 203.173 89.0279C203.392 89.5341 203.502 90.0529 203.502 90.5851C203.502 91.1724 203.407 91.709 203.215 92.1936C203.023 92.6789 202.737 93.1173 202.355 93.5096C201.972 93.9055 201.536 94.2055 201.046 94.408C200.556 94.6112 200.025 94.7131 199.45 94.7131C198.872 94.7131 198.345 94.6097 197.869 94.405C197.395 94.1995 196.961 93.8914 196.568 93.4813C196.195 93.0801 195.913 92.6379 195.722 92.1549C195.531 91.6725 195.435 91.1634 195.435 90.6268Z" fill="white"/>
<path d="M207.244 86.8134V87.688C207.506 87.3381 207.805 87.0791 208.143 86.9116C208.481 86.7442 208.867 86.6593 209.301 86.6593C209.921 86.6593 210.452 86.7687 210.893 86.9883C211.334 87.2071 211.712 87.5503 212.03 88.017C212.333 87.5592 212.674 87.2191 213.052 86.9958C213.428 86.7717 213.846 86.6593 214.303 86.6593C215.246 86.6593 215.969 86.9556 216.472 87.548C216.976 88.1405 217.229 88.9891 217.229 90.0944V94.5098H215.465V91.103C215.465 90.0572 215.35 89.3478 215.119 88.9712C214.888 88.5961 214.487 88.4092 213.919 88.4092C213.325 88.4092 212.903 88.6191 212.648 89.0419C212.394 89.4647 212.268 90.1882 212.268 91.2139V94.5098H210.491V91.103C210.491 90.0631 210.373 89.353 210.137 88.9749C209.902 88.5983 209.49 88.4092 208.903 88.4092C208.305 88.4092 207.876 88.6191 207.615 89.0419C207.354 89.4647 207.223 90.1882 207.223 91.2139V94.5098H205.495V86.8134H207.244Z" fill="white"/>
<path d="M225.287 89.8078C225.133 89.2957 224.875 88.9049 224.513 88.6369C224.152 88.3682 223.697 88.2335 223.146 88.2335C222.67 88.2335 222.244 88.3786 221.866 88.6674C221.488 88.957 221.234 89.3373 221.103 89.8078H225.287ZM221.04 91.2287C221.101 91.784 221.322 92.2209 221.701 92.5402C222.081 92.8595 222.572 93.0195 223.174 93.0195C223.576 93.0195 223.935 92.9354 224.254 92.768C224.575 92.599 224.828 92.3638 225.014 92.0616H226.945C226.618 92.9012 226.13 93.5525 225.48 94.0169C224.829 94.4799 224.076 94.7129 223.223 94.7129C222.65 94.7129 222.12 94.6117 221.638 94.4077C221.155 94.206 220.723 93.9053 220.341 93.5101C219.977 93.1312 219.694 92.6943 219.494 92.1978C219.293 91.7013 219.194 91.1915 219.194 90.6689C219.194 90.1323 219.285 89.6276 219.47 89.1542C219.654 88.6801 219.925 88.2551 220.284 87.877C220.677 87.4616 221.12 87.1431 221.613 86.919C222.108 86.695 222.619 86.5833 223.146 86.5833C223.814 86.5833 224.435 86.7344 225.014 87.0374C225.593 87.341 226.085 87.7675 226.49 88.3184C226.737 88.6488 226.921 89.0195 227.039 89.4311C227.159 89.8405 227.217 90.3124 227.217 90.8431C227.217 90.8855 227.216 90.9496 227.211 91.0359C227.206 91.123 227.204 91.187 227.204 91.2287H221.04Z" fill="white"/>
<path d="M232.779 88.3738C232.085 88.4303 231.599 88.6119 231.325 88.9201C231.049 89.2283 230.912 89.7828 230.912 90.5852V94.5093H229.121V86.8136H230.8V87.7024C231.069 87.357 231.366 87.1039 231.689 86.9432C232.01 86.7824 232.374 86.702 232.779 86.702V88.3738Z" fill="white"/>
<path d="M235.738 90.6126C235.738 91.3264 235.934 91.8921 236.325 92.3089C236.718 92.7265 237.249 92.9357 237.921 92.9357C238.583 92.9357 239.112 92.7228 239.506 92.2956C239.9 91.8683 240.097 91.2937 240.097 90.5709C240.097 89.9226 239.89 89.3897 239.477 88.9714C239.064 88.5545 238.546 88.3461 237.921 88.3461C237.277 88.3461 236.753 88.5568 236.347 88.9788C235.941 89.4009 235.738 89.9464 235.738 90.6126ZM233.891 90.6268C233.891 90.0856 233.99 89.5713 234.188 89.0838C234.386 88.5962 234.675 88.1645 235.052 87.7864C235.44 87.3993 235.876 87.1016 236.361 86.8939C236.846 86.687 237.349 86.5828 237.872 86.5828C238.427 86.5828 238.939 86.6751 239.408 86.859C239.876 87.0436 240.307 87.3197 240.698 87.6874C241.099 88.0759 241.41 88.5225 241.629 89.0279C241.848 89.5341 241.958 90.0529 241.958 90.5851C241.958 91.1724 241.863 91.709 241.671 92.1936C241.479 92.6789 241.193 93.1173 240.811 93.5096C240.428 93.9055 239.992 94.2055 239.502 94.408C239.012 94.6112 238.481 94.7131 237.907 94.7131C237.328 94.7131 236.801 94.6097 236.325 94.405C235.85 94.1995 235.416 93.8914 235.024 93.4813C234.651 93.0801 234.368 92.6379 234.178 92.1549C233.987 91.6725 233.891 91.1634 233.891 90.6268Z" fill="white"/>
<path d="M0.313721 79.5222V63.4023H3.04169V77.8222H8.12026L7.98925 79.5222H0.313721Z" fill="white"/>
<path d="M14.4805 73.4274L12.7202 67.3321L10.8676 73.4274H14.4805ZM16.2305 79.522L14.8579 74.7642L10.4559 74.8334L9.02609 79.522H7.51733L12.1597 65.5256L14.4686 65.0433L18.791 79.522H16.2305Z" fill="white"/>
<path d="M25.0359 75.5371C25.0359 74.6186 24.8089 73.9234 24.3556 73.4552C23.9016 72.9863 23.2443 72.7518 22.3831 72.7518H21.6403V78.1713C21.7088 78.1802 21.7661 78.1899 21.8115 78.1988C21.8576 78.2077 21.9068 78.2152 21.9596 78.2189C22.0132 78.2241 22.0817 78.2263 22.165 78.2263H22.5082C22.6533 78.2263 22.8119 78.2189 22.9838 78.2055C23.155 78.1914 23.324 78.1713 23.4929 78.1437C23.6597 78.1154 23.8122 78.0812 23.9492 78.0395C24.0869 77.9986 24.1978 77.9502 24.2812 77.8944C24.3653 77.8393 24.4524 77.7619 24.5439 77.6607C24.6355 77.5594 24.7173 77.4195 24.7903 77.2409C24.8625 77.0607 24.922 76.8337 24.9674 76.5576C25.0128 76.2814 25.0359 75.9413 25.0359 75.5371ZM24.4978 69.0011C24.4978 68.5783 24.4486 68.2248 24.3496 67.939C24.2507 67.6546 24.104 67.4217 23.9098 67.243C23.7155 67.0629 23.4766 66.9341 23.1952 66.8567C22.9131 66.7793 22.5893 66.7391 22.2231 66.7391C22.1167 66.7391 22.011 66.7421 21.909 66.7458C21.8055 66.7518 21.7162 66.7622 21.6403 66.7808V71.3309H22.4285C22.6957 71.3309 22.9697 71.3011 23.2518 71.2416C23.5339 71.182 23.7512 71.1016 23.9038 71.0004C23.973 70.955 24.043 70.888 24.1159 70.8002C24.1881 70.7131 24.2529 70.594 24.3095 70.4421C24.3668 70.2896 24.4129 70.0968 24.4472 69.8631C24.4814 69.6278 24.4978 69.3413 24.4978 69.0011ZM27.4721 75.7031C27.4721 76.3283 27.3835 76.8836 27.2086 77.3711C27.033 77.8579 26.7665 78.274 26.4077 78.6186C26.0497 78.9632 25.5904 79.226 25.0307 79.4046C24.4702 79.584 23.8085 79.6741 23.0463 79.6741C22.7947 79.6741 22.503 79.6689 22.1717 79.6599C21.8398 79.6503 21.5004 79.6376 21.1535 79.619C20.8066 79.6004 20.4657 79.5773 20.13 79.5498C19.7951 79.5222 19.5018 79.4947 19.2502 79.4671V65.4983C19.4862 65.4708 19.743 65.4455 20.0221 65.4224C20.3005 65.3993 20.5833 65.3814 20.8736 65.3673C21.1632 65.3532 21.4549 65.342 21.749 65.3331C22.0415 65.3234 22.3221 65.3189 22.5893 65.3189C23.2369 65.3189 23.8279 65.3837 24.3616 65.5124C24.8952 65.6405 25.3515 65.8385 25.7334 66.1049C26.1145 66.3721 26.4077 66.7183 26.6139 67.1463C26.8201 67.5735 26.9221 68.0819 26.9221 68.6699C26.9221 69.1485 26.8655 69.5713 26.7509 69.9382C26.6362 70.3059 26.4829 70.623 26.2879 70.8902C26.0936 71.1567 25.8666 71.3748 25.6076 71.5452C25.3478 71.7157 25.0776 71.8422 24.7955 71.9241V71.9658C25.2682 72.0856 25.6738 72.262 26.0132 72.4965C26.3519 72.7302 26.6318 73.0093 26.8484 73.3309C27.0657 73.6524 27.2235 74.0157 27.3225 74.4198C27.4215 74.8248 27.4721 75.252 27.4721 75.7031Z" fill="white"/>
<path d="M37.2601 72.4202C37.2601 71.5567 37.1953 70.7849 37.0658 70.1038C36.9363 69.4235 36.7338 68.8436 36.4599 68.3665C36.1852 67.8879 35.8347 67.5232 35.4082 67.2709C34.9809 67.0178 34.4703 66.8905 33.8756 66.8905C33.3575 66.8905 32.8752 66.9553 32.4293 67.084C31.9835 67.2136 31.6307 67.3967 31.3709 67.6356C31.1126 67.8753 30.9236 68.3918 30.806 69.1868C30.6869 69.9825 30.6281 71.0595 30.6281 72.4202C30.6281 73.2657 30.6817 74.0339 30.7888 74.7231C30.8953 75.4131 31.0717 76.0056 31.3203 76.5021C31.5674 76.9993 31.8972 77.3826 32.3095 77.6535C32.7211 77.9252 33.2355 78.0599 33.8533 78.0599C34.4852 78.0599 35.0092 77.9944 35.4253 77.8605C35.8406 77.7272 36.189 77.5501 36.4711 77.329C36.6006 77.2278 36.7152 77.0238 36.8142 76.7157C36.9132 76.4083 36.9951 76.0331 37.0598 75.5917C37.1246 75.1511 37.1745 74.6569 37.2087 74.1098C37.2429 73.5627 37.2601 72.9992 37.2601 72.4202ZM39.7759 72.4068C39.7759 73.5285 39.6516 74.54 39.4045 75.4406C39.1559 76.3413 38.7844 77.1087 38.2895 77.7429C37.7937 78.377 37.1759 78.8646 36.4368 79.2055C35.6977 79.5449 34.8365 79.7153 33.8533 79.7153C32.8462 79.7153 31.985 79.5412 31.2689 79.1906C30.5521 78.8415 29.9611 78.3473 29.4967 77.7086C29.0315 77.07 28.6906 76.3026 28.4732 75.4064C28.2559 74.5095 28.1472 73.5099 28.1472 72.4068C28.1472 71.3037 28.2589 70.3107 28.4844 69.4287C28.7092 68.5459 29.0538 67.7941 29.519 67.1734C29.9842 66.5526 30.5767 66.077 31.2965 65.7465C32.0177 65.416 32.8767 65.25 33.8756 65.25C34.8588 65.25 35.7185 65.416 36.4539 65.7465C37.1893 66.077 37.8034 66.5526 38.2954 67.1734C38.7867 67.7941 39.1559 68.5459 39.4045 69.4287C39.6516 70.3107 39.7759 71.3037 39.7759 72.4068Z" fill="white"/>
<path d="M44.0416 72.3104C44.3773 72.3104 44.6989 72.262 45.0078 72.1653C45.3167 72.0693 45.5586 71.9472 45.7343 71.7998C45.8258 71.7269 45.9174 71.6375 46.0082 71.5311C46.0997 71.4261 46.1816 71.2788 46.2545 71.0897C46.3267 70.9021 46.3841 70.6647 46.4257 70.3796C46.4682 70.0953 46.4883 69.7373 46.4883 69.3041C46.4883 68.8262 46.4414 68.422 46.3461 68.0908C46.2508 67.7596 46.1094 67.4953 45.9226 67.2981C45.7365 67.1001 45.505 66.9579 45.2303 66.8701C44.9564 66.783 44.6364 66.7391 44.2709 66.7391C44.1868 66.7391 44.0833 66.7443 43.962 66.754C43.8392 66.7629 43.7298 66.7763 43.63 66.7942V72.3104H44.0416ZM44.4309 73.7031H43.63V79.5222H41.24V65.4298C41.4767 65.4112 41.7335 65.3926 42.0119 65.374C42.291 65.3561 42.5761 65.3405 42.8701 65.3256C43.1633 65.3122 43.4603 65.3003 43.7618 65.2914C44.0632 65.2824 44.3505 65.278 44.6245 65.278C46.0432 65.278 47.118 65.5899 47.8496 66.2158C48.5813 66.8403 48.9468 67.8147 48.9468 69.1388C48.9468 69.7268 48.8843 70.2419 48.7585 70.6833C48.6327 71.124 48.4674 71.5088 48.2613 71.8355C48.0551 72.1615 47.8184 72.434 47.5527 72.655C47.2847 72.8754 47.0071 73.0644 46.7175 73.22C47.0674 73.9465 47.4016 74.6312 47.7179 75.2751C48.0335 75.9189 48.3491 76.4824 48.6617 76.964C48.9743 77.447 49.2936 77.8289 49.6219 78.1087C49.9494 78.3894 50.3 78.5285 50.6744 78.5285H50.754V79.4255C50.5635 79.4992 50.3461 79.558 50.1027 79.6041C49.8586 79.6503 49.5839 79.6741 49.2788 79.6741C48.9892 79.6741 48.7242 79.6555 48.4846 79.619C48.2441 79.5818 48.0186 79.5111 47.8094 79.4046C47.5995 79.2997 47.3934 79.1456 47.1924 78.9431C46.9899 78.7407 46.7823 78.4742 46.5687 78.1437C46.3558 77.8125 46.1265 77.4054 45.8824 76.923C45.6382 76.44 45.3725 75.8631 45.0822 75.1925L44.4309 73.7031Z" fill="white"/>
<path d="M56.2777 73.4274L54.5174 67.3321L52.6647 73.4274H56.2777ZM58.0276 79.522L56.6551 74.7642L52.2531 74.8334L50.824 79.522H49.3145L53.9569 65.5256L56.2658 65.0433L60.5881 79.522H58.0276Z" fill="white"/>
<path d="M62.5338 79.5222V66.9051L58.932 66.8359L59.0466 65.4015H68.5249L68.4111 66.7949L64.9239 66.9051V79.5222H62.5338Z" fill="white"/>
<path d="M77.902 72.4202C77.902 71.5567 77.8373 70.7849 77.7077 70.1038C77.5782 69.4235 77.3758 68.8436 77.1019 68.3665C76.8272 67.8879 76.4766 67.5232 76.0501 67.2709C75.6229 67.0178 75.1123 66.8905 74.5175 66.8905C73.9995 66.8905 73.5172 66.9553 73.0713 67.084C72.6255 67.2136 72.2726 67.3967 72.0136 67.6356C71.7546 67.8753 71.5655 68.3918 71.4479 69.1868C71.3288 69.9825 71.27 71.0595 71.27 72.4202C71.27 73.2657 71.3236 74.0339 71.4308 74.7231C71.5373 75.4131 71.7137 76.0056 71.9623 76.5021C72.2094 76.9993 72.5391 77.3826 72.9515 77.6535C73.3631 77.9252 73.8774 78.0599 74.4952 78.0599C75.1272 78.0599 75.6512 77.9944 76.0672 77.8605C76.4826 77.7272 76.8309 77.5501 77.113 77.329C77.2425 77.2278 77.3572 77.0238 77.4562 76.7157C77.5552 76.4083 77.637 76.0331 77.7018 75.5917C77.7665 75.1511 77.8164 74.6569 77.8507 74.1098C77.8849 73.5627 77.902 72.9992 77.902 72.4202ZM80.4179 72.4068C80.4179 73.5285 80.2936 74.54 80.0464 75.4406C79.7986 76.3413 79.4264 77.1087 78.9314 77.7429C78.4357 78.377 77.8179 78.8646 77.0788 79.2055C76.3397 79.5449 75.4785 79.7153 74.4952 79.7153C73.4881 79.7153 72.627 79.5412 71.9109 79.1906C71.1941 78.8415 70.6031 78.3473 70.1387 77.7086C69.6734 77.07 69.3325 76.3026 69.1152 75.4064C68.8979 74.5095 68.7892 73.5099 68.7892 72.4068C68.7892 71.3037 68.9008 70.3107 69.1264 69.4287C69.3512 68.5459 69.6958 67.7941 70.161 67.1734C70.6262 66.5526 71.2187 66.077 71.9392 65.7465C72.6597 65.416 73.5187 65.25 74.5175 65.25C75.5008 65.25 76.3598 65.416 77.0959 65.7465C77.8313 66.077 78.4454 66.5526 78.9374 67.1734C79.4286 67.7941 79.7986 68.5459 80.0464 69.4287C80.2936 70.3107 80.4179 71.3037 80.4179 72.4068Z" fill="white"/>
<path d="M84.6836 72.3104C85.0193 72.3104 85.3409 72.262 85.6498 72.1653C85.9587 72.0693 86.2006 71.9472 86.3762 71.7998C86.4678 71.7269 86.5593 71.6375 86.6501 71.5311C86.7417 71.4261 86.8236 71.2788 86.8958 71.0897C86.9687 70.9021 87.026 70.6647 87.0677 70.3796C87.1094 70.0953 87.1302 69.7373 87.1302 69.3041C87.1302 68.8262 87.0826 68.422 86.9873 68.0908C86.8928 67.7596 86.7514 67.4953 86.5645 67.2981C86.3785 67.1001 86.147 66.9579 85.8723 66.8701C85.5984 66.783 85.2783 66.7391 84.9129 66.7391C84.8288 66.7391 84.7253 66.7443 84.604 66.754C84.4812 66.7629 84.3717 66.7763 84.272 66.7942V72.3104H84.6836ZM85.0722 73.7031H84.272V79.5222H81.882V65.4298C82.1187 65.4112 82.3754 65.3926 82.6538 65.374C82.933 65.3561 83.218 65.3405 83.512 65.3256C83.8053 65.3122 84.1023 65.3003 84.4037 65.2914C84.7052 65.2824 84.9925 65.278 85.2664 65.278C86.6851 65.278 87.7599 65.5899 88.4916 66.2158C89.2233 66.8403 89.5888 67.8147 89.5888 69.1388C89.5888 69.7268 89.5262 70.2419 89.3997 70.6833C89.2746 71.124 89.1087 71.5088 88.9025 71.8355C88.697 72.1615 88.4603 72.434 88.1939 72.655C87.9267 72.8754 87.649 73.0644 87.3595 73.22C87.7093 73.9465 88.0435 74.6312 88.3599 75.2751C88.6755 75.9189 88.9911 76.4824 89.3037 76.964C89.6163 77.447 89.9356 77.8289 90.2639 78.1087C90.5914 78.3894 90.9419 78.5285 91.3156 78.5285H91.396V79.4255C91.2054 79.4992 90.9881 79.558 90.744 79.6041C90.5006 79.6503 90.2252 79.6741 89.9207 79.6741C89.6312 79.6741 89.3662 79.6555 89.1258 79.619C88.8854 79.5818 88.6606 79.5111 88.4514 79.4046C88.2415 79.2997 88.0353 79.1456 87.8344 78.9431C87.6319 78.7407 87.4242 78.4742 87.2106 78.1437C86.997 77.8125 86.7685 77.4054 86.5243 76.923C86.2802 76.44 86.0137 75.8631 85.7242 75.1925L85.0722 73.7031Z" fill="white"/>
<path d="M94.0495 79.522H91.6595V65.4013H94.0495V79.522Z" fill="white"/>
<path d="M104.627 72.4202C104.627 71.5567 104.562 70.7849 104.433 70.1038C104.303 69.4235 104.101 68.8436 103.827 68.3665C103.552 67.8879 103.202 67.5232 102.775 67.2709C102.348 67.0178 101.837 66.8905 101.243 66.8905C100.725 66.8905 100.242 66.9553 99.7964 67.084C99.3506 67.2136 98.9977 67.3967 98.7387 67.6356C98.4797 67.8753 98.2906 68.3918 98.173 69.1868C98.0539 69.9825 97.9951 71.0595 97.9951 72.4202C97.9951 73.2657 98.0487 74.0339 98.1559 74.7231C98.2623 75.4131 98.4388 76.0056 98.6874 76.5021C98.9352 76.9993 99.2642 77.3826 99.6766 77.6535C100.088 77.9252 100.603 78.0599 101.22 78.0599C101.852 78.0599 102.376 77.9944 102.792 77.8605C103.208 77.7272 103.556 77.5501 103.838 77.329C103.968 77.2278 104.082 77.0238 104.181 76.7157C104.28 76.4083 104.362 76.0331 104.427 75.5917C104.492 75.1511 104.542 74.6569 104.576 74.1098C104.61 73.5627 104.627 72.9992 104.627 72.4202ZM107.143 72.4068C107.143 73.5285 107.019 74.54 106.772 75.4406C106.524 76.3413 106.152 77.1087 105.657 77.7429C105.161 78.377 104.543 78.8646 103.804 79.2055C103.065 79.5449 102.204 79.7153 101.22 79.7153C100.213 79.7153 99.352 79.5412 98.636 79.1906C97.9192 78.8415 97.3282 78.3473 96.8638 77.7086C96.3985 77.07 96.0576 76.3026 95.8403 75.4064C95.623 74.5095 95.5143 73.5099 95.5143 72.4068C95.5143 71.3037 95.6259 70.3107 95.8515 69.4287C96.0763 68.5459 96.4209 67.7941 96.8861 67.1734C97.3513 66.5526 97.9438 66.077 98.6643 65.7465C99.3848 65.416 100.244 65.25 101.243 65.25C102.227 65.25 103.086 65.416 103.821 65.7465C104.556 66.077 105.17 66.5526 105.662 67.1734C106.154 67.7941 106.524 68.5459 106.772 69.4287C107.019 70.3107 107.143 71.3037 107.143 72.4068Z" fill="white"/>
<path d="M117.06 79.7517C115.972 79.7517 115.046 79.5411 114.28 79.1205C113.514 78.7 112.894 78.1038 112.417 77.3334C111.942 76.5637 111.595 75.6423 111.377 74.5712C111.159 73.5001 111.051 72.3099 111.051 70.9976C111.051 69.9377 111.158 68.9924 111.371 68.1617C111.584 67.3318 111.872 66.6016 112.234 65.9734C112.597 65.3452 113.02 64.8123 113.505 64.3753C113.989 63.9384 114.499 63.5834 115.034 63.3095C115.569 63.037 116.117 62.8398 116.679 62.7199C117.241 62.5994 117.785 62.5391 118.31 62.5391C118.636 62.5391 118.983 62.5532 119.35 62.58C119.717 62.6076 120.073 62.6403 120.417 62.6783C120.762 62.717 121.084 62.7631 121.383 62.8175C121.681 62.8725 121.926 62.9276 122.117 62.9819L121.586 65.375C121.395 65.3095 121.126 65.2335 120.778 65.145C120.428 65.0586 120.055 64.979 119.657 64.9083C119.257 64.8368 118.865 64.7765 118.481 64.7281C118.095 64.6783 117.771 64.6537 117.508 64.6537C117.217 64.6537 116.964 64.6641 116.747 64.6865C116.53 64.7088 116.33 64.746 116.149 64.8011C115.968 64.8562 115.793 64.9299 115.625 65.0229C115.458 65.1159 115.287 65.238 115.116 65.3913C114.681 65.7404 114.388 66.4096 114.239 67.3996C114.089 68.3895 114.015 69.6154 114.015 71.0795C114.015 73.3207 114.305 75.0222 114.885 76.1856C115.464 77.3505 116.402 77.9318 117.698 77.9318C118.061 77.9318 118.437 77.9154 118.827 77.8827C119.216 77.8499 119.604 77.8016 119.989 77.7346C120.373 77.6698 120.75 77.5879 121.117 77.4889C121.484 77.3914 121.831 77.2768 122.157 77.1451V78.5385C121.794 78.735 121.403 78.9069 120.981 79.055C120.56 79.2031 120.127 79.3282 119.683 79.4316C119.239 79.5359 118.795 79.6148 118.351 79.6698C117.907 79.7242 117.477 79.7517 117.06 79.7517Z" fill="white"/>
<path d="M123.218 79.5222V65.4015H125.608V78.0328H130.056L129.94 79.5222H123.218Z" fill="white"/>
<path d="M133.269 79.522H130.879V65.4013H133.269V79.522ZM133.236 59.6513L134.435 61.0589L131.44 64.0503L130.685 63.1824L133.236 59.6513Z" fill="white"/>
<path d="M144.683 79.5913L136.415 69.691H136.381C136.396 70.5179 136.412 71.2809 136.426 71.979C136.435 72.2738 136.44 72.57 136.444 72.8685C136.448 73.167 136.452 73.4431 136.455 73.6962C136.458 73.9493 136.463 74.1696 136.467 74.3587C136.47 74.547 136.473 74.6825 136.473 74.7651V79.5228H135.077V65.3054H136.118L144.397 75.1782H144.408C144.393 74.4152 144.381 73.7029 144.374 73.0412C144.374 72.7561 144.371 72.4688 144.368 72.18C144.364 71.8905 144.361 71.6136 144.356 71.3523C144.352 71.0896 144.351 70.8484 144.351 70.6281V70.0907V65.4014H145.745V79.5913H144.683Z" fill="white"/>
<path d="M149.943 79.522H147.553V65.4013H149.943V79.522Z" fill="white"/>
<path d="M156.45 79.7153C155.536 79.7153 154.756 79.5382 154.112 79.1846C153.468 78.8311 152.946 78.3286 152.546 77.6818C152.145 77.0335 151.853 76.2587 151.671 75.358C151.488 74.4574 151.396 73.4548 151.396 72.3517C151.396 71.46 151.486 70.665 151.665 69.9661C151.844 69.2679 152.086 68.6538 152.392 68.1254C152.696 67.5961 153.053 67.1488 153.46 66.7804C153.868 66.4134 154.297 66.1149 154.747 65.8849C155.197 65.6549 155.658 65.4889 156.13 65.3877C156.602 65.2872 157.061 65.2366 157.503 65.2366C157.776 65.2366 158.069 65.2478 158.377 65.2709C158.686 65.2939 158.985 65.3215 159.276 65.3535C159.565 65.3862 159.836 65.4242 160.086 65.4703C160.338 65.5165 160.543 65.5626 160.704 65.6088L160.258 67.6215C160.098 67.5671 159.871 67.5024 159.577 67.4287C159.285 67.355 158.969 67.2887 158.634 67.2292C158.299 67.1689 157.97 67.119 157.645 67.0774C157.321 67.0357 157.049 67.0156 156.828 67.0156C156.584 67.0156 156.371 67.0245 156.188 67.0431C156.004 67.061 155.837 67.0937 155.684 67.1391C155.532 67.186 155.385 67.2478 155.244 67.3252C155.103 67.4041 154.96 67.5076 154.816 67.6363C154.449 67.9296 154.203 68.4931 154.077 69.3252C153.952 70.1566 153.889 71.189 153.889 72.4202C153.889 74.3055 154.133 75.7369 154.621 76.7164C155.108 77.6945 155.897 78.1842 156.988 78.1842C157.293 78.1842 157.609 78.1708 157.937 78.1441C158.264 78.115 158.59 78.0741 158.914 78.0197C159.239 77.9639 159.555 77.8947 159.864 77.8121C160.172 77.7302 160.464 77.6334 160.738 77.5225V78.6949C160.433 78.8608 160.104 79.0052 159.749 79.1295C159.394 79.2531 159.031 79.3588 158.657 79.4466C158.284 79.533 157.91 79.6007 157.537 79.6469C157.163 79.6923 156.801 79.7153 156.45 79.7153Z" fill="white"/>
<path d="M170.619 72.4202C170.619 71.5567 170.554 70.7849 170.424 70.1038C170.295 69.4235 170.093 68.8436 169.819 68.3665C169.544 67.8879 169.193 67.5232 168.766 67.2709C168.34 67.0178 167.829 66.8905 167.234 66.8905C166.716 66.8905 166.234 66.9553 165.787 67.084C165.342 67.2136 164.989 67.3967 164.73 67.6356C164.471 67.8753 164.282 68.3918 164.164 69.1868C164.046 69.9825 163.987 71.0595 163.987 72.4202C163.987 73.2657 164.04 74.0339 164.147 74.7231C164.254 75.4131 164.431 76.0056 164.679 76.5021C164.927 76.9993 165.257 77.3826 165.668 77.6535C166.08 77.9252 166.594 78.0599 167.212 78.0599C167.845 78.0599 168.368 77.9944 168.784 77.8605C169.199 77.7272 169.548 77.5501 169.83 77.329C169.959 77.2278 170.073 77.0238 170.173 76.7157C170.272 76.4083 170.354 76.0331 170.419 75.5917C170.483 75.1511 170.533 74.6569 170.567 74.1098C170.602 73.5627 170.619 72.9992 170.619 72.4202ZM173.135 72.4068C173.135 73.5285 173.011 74.54 172.763 75.4406C172.515 76.3413 172.143 77.1087 171.648 77.7429C171.152 78.377 170.535 78.8646 169.796 79.2055C169.056 79.5449 168.195 79.7153 167.212 79.7153C166.205 79.7153 165.343 79.5412 164.628 79.1906C163.911 78.8415 163.32 78.3473 162.855 77.7086C162.39 77.07 162.049 76.3026 161.832 75.4064C161.615 74.5095 161.505 73.5099 161.505 72.4068C161.505 71.3037 161.618 70.3107 161.843 69.4287C162.068 68.5459 162.413 67.7941 162.878 67.1734C163.344 66.5526 163.935 66.077 164.655 65.7465C165.376 65.416 166.235 65.25 167.234 65.25C168.218 65.25 169.077 65.416 169.813 65.7465C170.548 66.077 171.162 66.5526 171.654 67.1734C172.145 67.7941 172.515 68.5459 172.763 69.4287C173.011 70.3107 173.135 71.3037 173.135 72.4068Z" fill="white"/>
<path d="M185.455 79.5222H177.401V63.4023H185.167L185.036 65.0405L180.129 65.1179V70.3603L184.75 70.4228L184.619 71.9189L180.129 72.0447V77.8065L185.585 77.9331L185.455 79.5222Z" fill="white"/>
<path d="M193.581 75.3853C193.581 75.9004 193.471 76.4147 193.255 76.9298C193.037 77.4441 192.728 77.9086 192.328 78.3224C191.928 78.7355 191.446 79.072 190.882 79.3288C190.317 79.5856 189.685 79.7151 188.983 79.7151C188.602 79.7151 188.253 79.692 187.938 79.6466C187.621 79.6005 187.321 79.5312 187.039 79.4397C186.758 79.3474 186.487 79.2395 186.227 79.1152C185.968 78.9909 185.709 78.8517 185.45 78.6946L186.034 76.5986C186.201 76.737 186.428 76.8814 186.714 77.0333C186.999 77.1844 187.305 77.325 187.628 77.4531C187.952 77.5826 188.282 77.6905 188.618 77.7776C188.953 77.8647 189.258 77.9086 189.533 77.9086C190.166 77.9086 190.641 77.826 190.962 77.66C191.137 77.5684 191.28 77.3615 191.391 77.0392C191.501 76.7184 191.557 76.2949 191.557 75.7716C191.557 75.4039 191.474 75.098 191.31 74.8546C191.147 74.6112 190.931 74.3976 190.664 74.2137C190.398 74.0291 190.093 73.8639 189.75 73.7173C189.407 73.5699 189.057 73.4136 188.703 73.2476C188.349 73.0831 188 72.8918 187.657 72.676C187.315 72.4601 187.01 72.1929 186.742 71.8758C186.476 71.558 186.261 71.1769 186.096 70.731C185.933 70.2852 185.851 69.7455 185.851 69.1114C185.851 68.6975 185.944 68.2613 186.131 67.8013C186.317 67.3421 186.59 66.9238 186.948 66.5464C187.307 66.169 187.746 65.8571 188.268 65.6085C188.792 65.3607 189.388 65.2364 190.058 65.2364C190.6 65.2364 191.116 65.2684 191.607 65.3331C192.099 65.3972 192.578 65.4798 193.042 65.581L192.677 67.6763C192.456 67.5855 192.21 67.4977 191.939 67.415C191.668 67.3324 191.392 67.261 191.111 67.2014C190.828 67.1419 190.554 67.0935 190.287 67.0563C190.02 67.0198 189.784 67.0012 189.578 67.0012C189.357 67.0012 189.127 67.0176 188.886 67.0496C188.646 67.0816 188.45 67.1486 188.297 67.2498C188.145 67.351 188.035 67.5252 187.966 67.7731C187.898 68.0217 187.863 68.3201 187.863 68.67C187.863 69.0287 187.945 69.3272 188.109 69.5661C188.273 69.8058 188.488 70.012 188.755 70.1869C189.022 70.3611 189.326 70.5226 189.67 70.67C190.013 70.8166 190.364 70.9752 190.722 71.1449C191.08 71.3146 191.431 71.5081 191.773 71.724C192.116 71.9406 192.422 72.2115 192.689 72.5375C192.955 72.8643 193.17 73.2573 193.335 73.7173C193.498 74.1773 193.581 74.7325 193.581 75.3853Z" fill="white"/>
<path d="M197.343 72.9863L197.675 72.9029C197.987 72.8203 198.281 72.7153 198.556 72.5858C198.83 72.457 199.068 72.2687 199.27 72.0209C199.472 71.7723 199.63 71.4447 199.744 71.0346C199.859 70.6252 199.916 70.1042 199.916 69.47C199.916 68.9914 199.866 68.5798 199.767 68.2352C199.668 67.8906 199.531 67.6085 199.356 67.3874C199.18 67.1671 198.969 67.0041 198.721 66.8984C198.474 66.7919 198.198 66.7391 197.892 66.7391C197.587 66.7391 197.271 66.7666 196.943 66.8217V79.5222H194.553V65.4708C194.805 65.4529 195.079 65.4343 195.377 65.4157C195.674 65.3971 195.979 65.3814 196.291 65.3673C196.604 65.3531 196.918 65.342 197.234 65.3331C197.551 65.3234 197.857 65.3189 198.155 65.3189C198.872 65.3189 199.495 65.4134 200.024 65.6025C200.554 65.7901 200.995 66.0565 201.345 66.4012C201.696 66.7458 201.955 67.1693 202.122 67.6702C202.29 68.1712 202.375 68.7302 202.375 69.3457C202.375 69.9985 202.283 70.6126 202.1 71.1865C201.917 71.7611 201.631 72.262 201.243 72.6893C200.853 73.1173 200.358 73.4552 199.755 73.703C199.154 73.9509 198.437 74.0752 197.606 74.0752H197.503L197.343 72.9863Z" fill="white"/>
<path d="M210.448 79.5222H203.392V65.4015H210.197L210.082 66.8359L205.783 66.9051V71.4968L209.83 71.5519L209.716 72.8627L205.783 72.9721V78.0194L210.562 78.1296L210.448 79.5222Z" fill="white"/>
<path d="M216.246 79.7153C215.331 79.7153 214.551 79.5382 213.908 79.1846C213.264 78.8311 212.742 78.3286 212.341 77.6818C211.941 77.0335 211.649 76.2587 211.467 75.358C211.284 74.4574 211.192 73.4548 211.192 72.3517C211.192 71.46 211.282 70.665 211.461 69.9661C211.639 69.2679 211.882 68.6538 212.187 68.1254C212.492 67.5961 212.848 67.1488 213.257 66.7804C213.664 66.4134 214.093 66.1149 214.542 65.8849C214.993 65.6549 215.454 65.4889 215.926 65.3877C216.398 65.2872 216.856 65.2366 217.298 65.2366C217.573 65.2366 217.864 65.2478 218.173 65.2709C218.482 65.2939 218.781 65.3215 219.071 65.3535C219.36 65.3862 219.631 65.4242 219.882 65.4703C220.134 65.5165 220.339 65.5626 220.5 65.6088L220.054 67.6215C219.894 67.5671 219.667 67.5024 219.373 67.4287C219.081 67.355 218.766 67.2887 218.43 67.2292C218.095 67.1689 217.765 67.119 217.442 67.0774C217.117 67.0357 216.845 67.0156 216.624 67.0156C216.379 67.0156 216.166 67.0245 215.983 67.0431C215.8 67.061 215.633 67.0937 215.48 67.1391C215.328 67.186 215.181 67.2478 215.04 67.3252C214.899 67.4041 214.756 67.5076 214.612 67.6363C214.245 67.9296 213.999 68.4931 213.873 69.3252C213.748 70.1566 213.685 71.189 213.685 72.4202C213.685 74.3055 213.928 75.7369 214.417 76.7164C214.904 77.6945 215.693 78.1842 216.784 78.1842C217.089 78.1842 217.405 78.1708 217.733 78.1441C218.06 78.115 218.386 78.0741 218.71 78.0197C219.034 77.9639 219.351 77.8947 219.66 77.8121C219.968 77.7302 220.26 77.6334 220.534 77.5225V78.6949C220.229 78.8608 219.899 79.0052 219.545 79.1295C219.191 79.2531 218.827 79.3588 218.453 79.4466C218.079 79.533 217.706 79.6007 217.332 79.6469C216.959 79.6923 216.597 79.7153 216.246 79.7153Z" fill="white"/>
<path d="M224.035 79.522H221.644V65.4013H224.035V79.522Z" fill="white"/>
<path d="M231.457 73.4274L229.695 67.3321L227.843 73.4274H231.457ZM233.206 79.522L231.834 74.7642L227.431 74.8334L226.002 79.522H224.493L229.136 65.5256L231.445 65.0433L235.767 79.522H233.206Z" fill="white"/>
<path d="M236.225 79.5222V65.4015H238.616V78.0328H243.064L242.949 79.5222H236.225Z" fill="white"/>
<path d="M246.278 79.522H243.887V65.4013H246.278V79.522Z" fill="white"/>
<path d="M250.189 78.0603H253.917C254.435 78.0514 254.861 78.0015 255.197 77.9092C255.533 77.8169 255.809 77.7001 256.026 77.5579C256.243 77.4143 256.416 77.2632 256.546 77.1024C256.676 76.9416 256.794 76.7875 256.901 76.6402L257.495 77.2058C257.404 77.4262 257.283 77.6792 257.135 77.9643C256.986 78.2487 256.797 78.5159 256.569 78.7637C256.341 79.0123 256.06 79.2237 255.728 79.3979C255.397 79.5728 255.003 79.6606 254.546 79.6606C254.316 79.6606 253.993 79.6569 253.574 79.6532C253.155 79.648 252.691 79.6391 252.184 79.6257C251.676 79.6115 251.154 79.6004 250.618 79.5914C250.08 79.5817 249.58 79.5706 249.119 79.5564C248.658 79.543 248.266 79.5334 247.942 79.5289C247.618 79.5244 247.414 79.5222 247.33 79.5222V78.5575L253.219 66.9185H252.807C252.434 66.9185 251.999 66.917 251.504 66.9118C251.008 66.9073 250.517 66.9006 250.029 66.8909C249.541 66.882 249.091 66.8731 248.68 66.8634C248.268 66.8544 247.96 66.8455 247.753 66.8358L247.936 65.4015H256.1V66.2835L250.189 78.0603Z" fill="white"/>
<path d="M263.66 73.4274L261.899 67.3321L260.046 73.4274H263.66ZM265.409 79.522L264.037 74.7642L259.635 74.8334L258.206 79.522H256.696L261.339 65.5256L263.648 65.0433L267.97 79.522H265.409Z" fill="white"/>
<path d="M270.819 78.1154C270.895 78.134 270.986 78.1504 271.094 78.1638C271.2 78.1779 271.31 78.1921 271.424 78.2055C271.539 78.2196 271.652 78.2285 271.763 78.233C271.872 78.2375 271.962 78.2397 272.031 78.2397C272.74 78.2397 273.334 78.1898 273.815 78.0879C274.295 77.9866 274.706 77.7849 275.049 77.482C275.233 77.316 275.403 77.1113 275.564 76.8672C275.724 76.6245 275.863 76.2977 275.982 75.8884C276.099 75.4797 276.193 74.9721 276.261 74.3655C276.33 73.7581 276.364 73.0138 276.364 72.1317C276.364 71.0376 276.252 70.1384 276.027 69.435C275.802 68.7324 275.496 68.1756 275.106 67.7662C274.718 67.3583 274.261 67.0755 273.74 66.9184C273.219 66.7629 272.659 66.684 272.064 66.684C271.973 66.684 271.868 66.687 271.75 66.6907C271.632 66.6959 271.516 66.7056 271.402 66.7182C271.288 66.7331 271.178 66.7458 271.076 66.7606C270.973 66.774 270.887 66.7852 270.819 66.7941V78.1154ZM268.428 65.5124C268.68 65.4759 268.974 65.4417 269.309 65.4089C269.644 65.3769 269.999 65.3486 270.372 65.3256C270.746 65.304 271.121 65.2854 271.498 65.2705C271.876 65.2571 272.232 65.2504 272.568 65.2504C273.52 65.2504 274.388 65.3717 275.17 65.6151C275.95 65.8585 276.622 66.2471 277.181 66.7807C277.741 67.3144 278.175 68.0037 278.48 68.8492C278.785 69.6948 278.937 70.7153 278.937 71.9107C278.937 73.0778 278.815 74.1377 278.571 75.0897C278.328 76.0402 277.942 76.8538 277.416 77.5296C276.89 78.2055 276.214 78.7272 275.387 79.0957C274.559 79.4626 273.559 79.6465 272.385 79.6465C272.057 79.6465 271.712 79.639 271.35 79.6256C270.988 79.6115 270.632 79.5959 270.281 79.5773C269.93 79.5587 269.594 79.5333 269.274 79.5021C268.954 79.4693 268.673 79.4403 268.428 79.412V65.5124Z" fill="white"/>
<path d="M289.17 72.4202C289.17 71.5567 289.106 70.7849 288.976 70.1038C288.847 69.4235 288.644 68.8436 288.37 68.3665C288.096 67.8879 287.745 67.5232 287.318 67.2709C286.891 67.0178 286.381 66.8905 285.786 66.8905C285.268 66.8905 284.786 66.9553 284.339 67.084C283.894 67.2136 283.541 67.3967 283.281 67.6356C283.022 67.8753 282.834 68.3918 282.716 69.1868C282.597 69.9825 282.538 71.0595 282.538 72.4202C282.538 73.2657 282.592 74.0339 282.698 74.7231C282.806 75.4131 282.983 76.0056 283.231 76.5021C283.478 76.9993 283.808 77.3826 284.22 77.6535C284.632 77.9252 285.146 78.0599 285.764 78.0599C286.396 78.0599 286.92 77.9944 287.336 77.8605C287.751 77.7272 288.099 77.5501 288.381 77.329C288.511 77.2278 288.625 77.0238 288.725 76.7157C288.824 76.4083 288.905 76.0331 288.97 75.5917C289.035 75.1511 289.085 74.6569 289.119 74.1098C289.153 73.5627 289.17 72.9992 289.17 72.4202ZM291.686 72.4068C291.686 73.5285 291.563 74.54 291.315 75.4406C291.066 76.3413 290.695 77.1087 290.2 77.7429C289.704 78.377 289.086 78.8646 288.347 79.2055C287.608 79.5449 286.747 79.7153 285.764 79.7153C284.757 79.7153 283.895 79.5412 283.179 79.1906C282.463 78.8415 281.872 78.3473 281.407 77.7086C280.942 77.07 280.601 76.3026 280.384 75.4064C280.166 74.5095 280.057 73.5099 280.057 72.4068C280.057 71.3037 280.17 70.3107 280.395 69.4287C280.62 68.5459 280.965 67.7941 281.429 67.1734C281.895 66.5526 282.488 66.077 283.207 65.7465C283.928 65.416 284.787 65.25 285.786 65.25C286.77 65.25 287.629 65.416 288.364 65.7465C289.1 66.077 289.713 66.5526 290.206 67.1734C290.696 67.7941 291.066 68.5459 291.315 69.4287C291.563 70.3107 291.686 71.3037 291.686 72.4068Z" fill="white"/>
<path d="M148.802 36.4953V50.0779H141.415V36.4953L130.606 12.3374H138.719L145.251 28.5891L151.731 12.3374H159.793L148.802 36.4953Z" fill="white"/>
<path d="M145.623 53.0707C132.158 53.0707 121.203 42.1164 121.203 28.6515C121.203 15.1866 132.158 4.2315 145.623 4.2315C155.105 4.2315 163.338 9.66958 167.381 17.5863H172.049C167.711 7.26613 157.5 -1.6915e-05 145.623 -1.6915e-05C129.824 -1.6915e-05 116.972 12.8531 116.972 28.6515C116.972 44.4492 129.824 57.3022 145.623 57.3022C157.501 57.3022 167.714 50.0354 172.05 39.713H167.382C163.34 47.6319 155.107 53.0707 145.623 53.0707Z" fill="white"/>
<path d="M172.303 27.5134C172.25 27.5082 172.197 27.506 172.144 27.5067C172.117 26.9143 172.069 26.327 172.002 25.7457C172.615 25.6109 173.1 25.0973 173.165 24.4394C173.247 23.6206 172.65 22.8904 171.83 22.8085C171.719 22.7981 171.609 22.8003 171.502 22.813C171.158 21.3236 170.688 19.8803 170.102 18.4981H169.848C170.445 19.8945 170.924 21.3519 171.272 22.8599C170.704 23.0229 170.263 23.5179 170.2 24.1431C170.119 24.9619 170.716 25.6913 171.534 25.7732C171.615 25.7821 171.694 25.7821 171.772 25.7769C171.837 26.3553 171.884 26.9388 171.912 27.5268C171.263 27.6348 170.741 28.1625 170.672 28.8473C170.595 29.6251 171.129 30.3203 171.883 30.4595C171.846 31.0177 171.793 31.5708 171.721 32.1194C170.953 32.1037 170.29 32.6813 170.212 33.4591C170.142 34.1491 170.557 34.7751 171.178 35.0044C170.864 36.2742 170.458 37.509 169.965 38.6985H170.217C170.697 37.5277 171.094 36.3159 171.403 35.0684C171.449 35.0773 171.497 35.0855 171.546 35.09C172.365 35.1718 173.094 34.5742 173.176 33.7561C173.255 32.9746 172.714 32.2749 171.953 32.1417C172.024 31.5946 172.078 31.0416 172.115 30.4841C172.888 30.5056 173.56 29.9266 173.637 29.1443C173.719 28.3255 173.122 27.5953 172.303 27.5134Z" fill="white"/>
</svg>
